<svg width="201" height="182" viewBox="0 0 201 182" fill="none" xmlns="http://www.w3.org/2000/svg">
<path d="M114.114 96.6714C116.446 96.6714 118.337 94.7809 118.337 92.449C118.337 90.117 116.446 88.2266 114.114 88.2266C111.783 88.2266 109.892 90.117 109.892 92.449C109.892 94.7809 111.783 96.6714 114.114 96.6714Z" fill="#4A597F" fill-opacity="0.45"/>
<path d="M128.893 111.453C131.225 111.453 133.115 109.562 133.115 107.23C133.115 104.898 131.225 103.008 128.893 103.008C126.561 103.008 124.67 104.898 124.67 107.23C124.67 109.562 126.561 111.453 128.893 111.453Z" fill="#4A597F" fill-opacity="0.45"/>
<path d="M128.893 81.8901C131.225 81.8901 133.115 79.9997 133.115 77.6677C133.115 75.3357 131.225 73.4453 128.893 73.4453C126.561 73.4453 124.67 75.3357 124.67 77.6677C124.67 79.9997 126.561 81.8901 128.893 81.8901Z" fill="#4A597F" fill-opacity="0.45"/>
<path d="M74.0019 86.1149V79.7812H65.5571V86.1149C65.5571 87.2824 64.6113 88.2261 63.4459 88.2261H57.1123V96.6709H63.4459C64.6113 96.6709 65.5571 97.6146 65.5571 98.7821V105.116H74.0019V98.7821C74.0019 97.6146 74.9477 96.6709 76.1131 96.6709H82.4467V88.2261H76.1131C74.9477 88.2261 74.0019 87.2824 74.0019 86.1149Z" fill="#4A597F" fill-opacity="0.45"/>
<path d="M129.412 60.7801H101.447V36.5012C101.447 32.4266 104.762 29.112 108.836 29.112C112.911 29.112 116.226 32.4266 116.226 36.5012V43.8904C116.226 49.711 120.961 54.4464 126.782 54.4464C132.602 54.4464 137.338 49.711 137.338 43.8904V10.1112C137.338 8.94371 136.392 8 135.226 8C134.061 8 133.115 8.94371 133.115 10.1112V43.8904C133.115 47.3824 130.274 50.224 126.782 50.224C123.29 50.224 120.448 47.3824 120.448 43.8904V36.5012C120.448 30.1001 115.24 24.8896 108.836 24.8896C102.433 24.8896 97.2249 30.1001 97.2249 36.5012V60.7801H67.6089C50.1788 60.7801 36 74.9589 36 92.389C36 107.482 46.9973 123.787 63.3675 123.998L63.8088 124C68.2887 124 75.8447 123.242 83.6161 121.114C92.6267 118.644 104.42 118.646 113.399 121.112C121.048 123.217 129.68 124 133.324 124L133.658 123.998C146.597 123.776 160.561 111.628 160.561 92.389C160.561 74.9589 146.587 60.7801 129.412 60.7801ZM128.893 69.2249C133.55 69.2249 137.338 73.0124 137.338 77.6697C137.338 82.327 133.55 86.1145 128.893 86.1145C124.236 86.1145 120.448 82.327 120.448 77.6697C120.448 73.0124 124.236 69.2249 128.893 69.2249ZM86.6688 98.7817C86.6688 99.9492 85.723 100.893 84.5576 100.893H78.224V107.227C78.224 108.394 77.2782 109.338 76.1128 109.338H63.4456C62.2802 109.338 61.3344 108.394 61.3344 107.227V100.893H55.0008C53.8354 100.893 52.8896 99.9492 52.8896 98.7817V86.1145C52.8896 84.947 53.8354 84.0033 55.0008 84.0033H61.3344V77.6697C61.3344 76.5022 62.2802 75.5585 63.4456 75.5585H76.1128C77.2782 75.5585 78.224 76.5022 78.224 77.6697V84.0033H84.5576C85.723 84.0033 86.6688 84.947 86.6688 86.1145V98.7817ZM95.1137 73.4473C93.9483 73.4473 93.0025 72.5036 93.0025 71.3361C93.0025 70.1686 93.9483 69.2249 95.1137 69.2249H104.891C106.056 69.2249 107.002 70.1686 107.002 71.3361C107.002 72.5036 106.056 73.4473 104.891 73.4473H95.1137ZM114.114 100.893C109.457 100.893 105.67 97.1054 105.67 92.4481C105.67 87.7908 109.457 84.0033 114.114 84.0033C118.772 84.0033 122.559 87.7908 122.559 92.4481C122.559 97.1054 118.772 100.893 114.114 100.893ZM128.893 115.671C124.236 115.671 120.448 111.884 120.448 107.227C120.448 102.569 124.236 98.7817 128.893 98.7817C133.55 98.7817 137.338 102.569 137.338 107.227C137.338 111.884 133.55 115.671 128.893 115.671ZM143.671 100.893C139.014 100.893 135.226 97.1054 135.226 92.4481C135.226 87.7908 139.014 84.0033 143.671 84.0033C148.329 84.0033 152.116 87.7908 152.116 92.4481C152.116 97.1054 148.329 100.893 143.671 100.893Z" fill="#4A597F" fill-opacity="0.45"/>
<path d="M143.671 96.6714C146.003 96.6714 147.894 94.7809 147.894 92.449C147.894 90.117 146.003 88.2266 143.671 88.2266C141.339 88.2266 139.449 90.117 139.449 92.449C139.449 94.7809 141.339 96.6714 143.671 96.6714Z" fill="#4A597F" fill-opacity="0.45"/>
<path d="M14.4886 146V36.9091H77.6101V45.8579H24.4496V86.9268H72.6562V95.8757H24.4496V146H14.4886ZM134.339 146H102.379V36.9091H136.257C146.662 36.9091 155.558 39.0753 162.944 43.4077C170.366 47.7401 176.048 53.9545 179.989 62.0511C183.931 70.1477 185.902 79.8601 185.902 91.1882C185.902 102.623 183.878 112.442 179.83 120.645C175.817 128.812 169.957 135.08 162.251 139.448C154.581 143.816 145.277 146 134.339 146ZM112.34 137.051H133.754C143.129 137.051 150.977 135.205 157.298 131.511C163.619 127.818 168.359 122.545 171.52 115.691C174.68 108.837 176.261 100.67 176.261 91.1882C176.225 81.7777 174.663 73.6811 171.573 66.8984C168.519 60.1158 163.974 54.9133 157.937 51.2912C151.935 47.669 144.513 45.8579 135.671 45.8579H112.34V137.051Z" fill="#0C9A97"/>
<rect y="95" width="201" height="19" fill="white"/>
<path d="M34.233 110V99.8182H40.3381V100.912H35.4659V104.352H39.8807V105.446H35.4659V110H34.233ZM49.1316 99.8182H50.3645V106.56C50.3645 107.256 50.2005 107.877 49.8723 108.424C49.5475 108.968 49.0885 109.397 48.4952 109.712C47.9019 110.023 47.2059 110.179 46.4071 110.179C45.6084 110.179 44.9123 110.023 44.3191 109.712C43.7258 109.397 43.2651 108.968 42.937 108.424C42.6122 107.877 42.4498 107.256 42.4498 106.56V99.8182H43.6827V106.46C43.6827 106.957 43.7921 107.4 44.0108 107.788C44.2296 108.172 44.5411 108.475 44.9455 108.697C45.3532 108.916 45.8404 109.026 46.4071 109.026C46.9739 109.026 47.4611 108.916 47.8688 108.697C48.2765 108.475 48.588 108.172 48.8034 107.788C49.0222 107.4 49.1316 106.957 49.1316 106.46V99.8182ZM60.9006 99.8182V110H59.7074L54.1591 102.006H54.0597V110H52.8267V99.8182H54.0199L59.5881 107.832H59.6875V99.8182H60.9006ZM63.3677 110V99.8182H64.6007V104.352H70.0297V99.8182H71.2626V110H70.0297V105.446H64.6007V110H63.3677ZM82.3219 104.909C82.3219 105.983 82.128 106.911 81.7402 107.693C81.3525 108.475 80.8205 109.079 80.1444 109.503C79.4682 109.927 78.696 110.139 77.8276 110.139C76.9592 110.139 76.187 109.927 75.5108 109.503C74.8347 109.079 74.3027 108.475 73.915 107.693C73.5272 106.911 73.3333 105.983 73.3333 104.909C73.3333 103.835 73.5272 102.907 73.915 102.125C74.3027 101.343 74.8347 100.74 75.5108 100.315C76.187 99.8911 76.9592 99.679 77.8276 99.679C78.696 99.679 79.4682 99.8911 80.1444 100.315C80.8205 100.74 81.3525 101.343 81.7402 102.125C82.128 102.907 82.3219 103.835 82.3219 104.909ZM81.1287 104.909C81.1287 104.027 80.9812 103.283 80.6863 102.677C80.3946 102.07 79.9985 101.611 79.498 101.3C79.0009 100.988 78.4441 100.832 77.8276 100.832C77.2111 100.832 76.6526 100.988 76.1522 101.3C75.655 101.611 75.2589 102.07 74.964 102.677C74.6723 103.283 74.5265 104.027 74.5265 104.909C74.5265 105.791 74.6723 106.535 74.964 107.141C75.2589 107.748 75.655 108.207 76.1522 108.518C76.6526 108.83 77.2111 108.986 77.8276 108.986C78.4441 108.986 79.0009 108.83 79.498 108.518C79.9985 108.207 80.3946 107.748 80.6863 107.141C80.9812 106.535 81.1287 105.791 81.1287 104.909ZM91.0769 99.8182H92.3098V106.56C92.3098 107.256 92.1458 107.877 91.8176 108.424C91.4928 108.968 91.0338 109.397 90.4405 109.712C89.8472 110.023 89.1512 110.179 88.3525 110.179C87.5537 110.179 86.8577 110.023 86.2644 109.712C85.6711 109.397 85.2104 108.968 84.8823 108.424C84.5575 107.877 84.3951 107.256 84.3951 106.56V99.8182H85.628V106.46C85.628 106.957 85.7374 107.4 85.9561 107.788C86.1749 108.172 86.4864 108.475 86.8908 108.697C87.2985 108.916 87.7857 109.026 88.3525 109.026C88.9192 109.026 89.4064 108.916 89.8141 108.697C90.2218 108.475 90.5333 108.172 90.7488 107.788C90.9675 107.4 91.0769 106.957 91.0769 106.46V99.8182ZM100.34 102.364C100.281 101.86 100.039 101.469 99.6143 101.19C99.1901 100.912 98.6697 100.773 98.0533 100.773C97.6025 100.773 97.2081 100.846 96.87 100.991C96.5353 101.137 96.2734 101.338 96.0845 101.593C95.8989 101.848 95.8061 102.138 95.8061 102.463C95.8061 102.735 95.8707 102.969 96 103.164C96.1326 103.356 96.3016 103.517 96.5071 103.646C96.7126 103.772 96.928 103.877 97.1534 103.96C97.3788 104.039 97.5859 104.104 97.7749 104.153L98.8089 104.432C99.0741 104.501 99.3691 104.598 99.6939 104.72C100.022 104.843 100.335 105.01 100.634 105.222C100.935 105.431 101.184 105.7 101.379 106.028C101.575 106.356 101.673 106.759 101.673 107.236C101.673 107.786 101.528 108.283 101.24 108.727C100.955 109.171 100.537 109.524 99.9872 109.786C99.4403 110.048 98.7758 110.179 97.9936 110.179C97.2644 110.179 96.633 110.061 96.0994 109.826C95.5691 109.591 95.1515 109.263 94.8466 108.842C94.545 108.421 94.3743 107.932 94.3345 107.375H95.6072C95.6404 107.759 95.7696 108.078 95.995 108.33C96.2237 108.578 96.5121 108.764 96.8601 108.886C97.2114 109.006 97.5893 109.065 97.9936 109.065C98.4643 109.065 98.8868 108.989 99.2614 108.837C99.6359 108.681 99.9325 108.465 100.151 108.19C100.37 107.912 100.479 107.587 100.479 107.216C100.479 106.878 100.385 106.603 100.196 106.391C100.007 106.179 99.7585 106.006 99.4503 105.874C99.142 105.741 98.8089 105.625 98.451 105.526L97.1982 105.168C96.4027 104.939 95.773 104.612 95.3089 104.188C94.8449 103.764 94.6129 103.209 94.6129 102.523C94.6129 101.953 94.767 101.455 95.0753 101.031C95.3868 100.604 95.8045 100.272 96.3281 100.037C96.8551 99.7983 97.4434 99.679 98.093 99.679C98.7493 99.679 99.3326 99.7966 99.843 100.032C100.353 100.264 100.758 100.582 101.056 100.987C101.358 101.391 101.517 101.85 101.533 102.364H100.34ZM103.7 110V99.8182H109.845V100.912H104.933V104.352H109.526V105.446H104.933V108.906H109.924V110H103.7ZM119.146 110H116.004V99.8182H119.286C120.273 99.8182 121.119 100.022 121.821 100.43C122.524 100.834 123.062 101.416 123.437 102.175C123.811 102.93 123.999 103.835 123.999 104.889C123.999 105.95 123.81 106.863 123.432 107.629C123.054 108.391 122.504 108.978 121.781 109.388C121.059 109.796 120.181 110 119.146 110ZM117.237 108.906H119.067C119.909 108.906 120.606 108.744 121.16 108.419C121.713 108.094 122.126 107.632 122.398 107.032C122.67 106.432 122.806 105.718 122.806 104.889C122.806 104.067 122.671 103.36 122.403 102.766C122.134 102.17 121.733 101.712 121.2 101.394C120.666 101.073 120.002 100.912 119.206 100.912H117.237V108.906ZM127.3 99.8182V110H126.067V99.8182H127.3ZM136.732 103C136.623 102.665 136.479 102.365 136.3 102.1C136.124 101.832 135.914 101.603 135.668 101.414C135.426 101.225 135.151 101.081 134.843 100.982C134.535 100.882 134.197 100.832 133.829 100.832C133.226 100.832 132.677 100.988 132.183 101.3C131.689 101.611 131.297 102.07 131.005 102.677C130.713 103.283 130.567 104.027 130.567 104.909C130.567 105.791 130.715 106.535 131.01 107.141C131.305 107.748 131.704 108.207 132.208 108.518C132.712 108.83 133.279 108.986 133.908 108.986C134.492 108.986 135.005 108.862 135.45 108.613C135.897 108.361 136.245 108.006 136.494 107.549C136.746 107.088 136.871 106.546 136.871 105.923L137.249 106.003H134.187V104.909H138.065V106.003C138.065 106.841 137.886 107.571 137.528 108.19C137.173 108.81 136.683 109.291 136.056 109.632C135.433 109.97 134.717 110.139 133.908 110.139C133.007 110.139 132.215 109.927 131.532 109.503C130.853 109.079 130.322 108.475 129.941 107.693C129.563 106.911 129.374 105.983 129.374 104.909C129.374 104.104 129.482 103.379 129.697 102.737C129.916 102.09 130.224 101.54 130.622 101.086C131.02 100.632 131.491 100.284 132.034 100.042C132.578 99.8 133.176 99.679 133.829 99.679C134.366 99.679 134.866 99.7602 135.33 99.9226C135.798 100.082 136.214 100.309 136.578 100.604C136.946 100.895 137.253 101.245 137.498 101.653C137.743 102.057 137.912 102.506 138.005 103H136.732ZM141.409 99.8182V110H140.176V99.8182H141.409ZM143.325 100.912V99.8182H150.961V100.912H147.759V110H146.526V100.912H143.325ZM152.092 110H150.799L154.538 99.8182H155.811L159.549 110H158.257L155.214 101.429H155.135L152.092 110ZM152.569 106.023H157.779V107.116H152.569V106.023ZM161.135 110V99.8182H162.368V108.906H167.101V110H161.135Z" fill="#4A597F"/>
</svg>
