<svg width="196" height="182" viewBox="0 0 196 182" fill="none" xmlns="http://www.w3.org/2000/svg">
<path d="M114.114 96.6714C116.446 96.6714 118.337 94.7809 118.337 92.449C118.337 90.117 116.446 88.2266 114.114 88.2266C111.783 88.2266 109.892 90.117 109.892 92.449C109.892 94.7809 111.783 96.6714 114.114 96.6714Z" fill="#0C9A97" fill-opacity="0.07"/>
<path d="M128.893 111.453C131.225 111.453 133.115 109.562 133.115 107.23C133.115 104.898 131.225 103.008 128.893 103.008C126.561 103.008 124.67 104.898 124.67 107.23C124.67 109.562 126.561 111.453 128.893 111.453Z" fill="#0C9A97" fill-opacity="0.07"/>
<path d="M128.893 81.8901C131.225 81.8901 133.115 79.9997 133.115 77.6677C133.115 75.3357 131.225 73.4453 128.893 73.4453C126.561 73.4453 124.67 75.3357 124.67 77.6677C124.67 79.9997 126.561 81.8901 128.893 81.8901Z" fill="#0C9A97" fill-opacity="0.07"/>
<path d="M74.0019 86.1149V79.7812H65.5571V86.1149C65.5571 87.2824 64.6113 88.2261 63.4459 88.2261H57.1123V96.6709H63.4459C64.6113 96.6709 65.5571 97.6146 65.5571 98.7821V105.116H74.0019V98.7821C74.0019 97.6146 74.9477 96.6709 76.1131 96.6709H82.4467V88.2261H76.1131C74.9477 88.2261 74.0019 87.2824 74.0019 86.1149Z" fill="#0C9A97" fill-opacity="0.07"/>
<path d="M129.412 60.7801H101.447V36.5012C101.447 32.4266 104.762 29.112 108.836 29.112C112.911 29.112 116.226 32.4266 116.226 36.5012V43.8904C116.226 49.711 120.961 54.4464 126.782 54.4464C132.602 54.4464 137.338 49.711 137.338 43.8904V10.1112C137.338 8.94371 136.392 8 135.226 8C134.061 8 133.115 8.94371 133.115 10.1112V43.8904C133.115 47.3824 130.274 50.224 126.782 50.224C123.29 50.224 120.448 47.3824 120.448 43.8904V36.5012C120.448 30.1001 115.24 24.8896 108.836 24.8896C102.433 24.8896 97.2249 30.1001 97.2249 36.5012V60.7801H67.6089C50.1788 60.7801 36 74.9589 36 92.389C36 107.482 46.9973 123.787 63.3675 123.998L63.8088 124C68.2887 124 75.8447 123.242 83.6161 121.114C92.6267 118.644 104.42 118.646 113.399 121.112C121.048 123.217 129.68 124 133.324 124L133.658 123.998C146.597 123.776 160.561 111.628 160.561 92.389C160.561 74.9589 146.587 60.7801 129.412 60.7801ZM128.893 69.2249C133.55 69.2249 137.338 73.0124 137.338 77.6697C137.338 82.327 133.55 86.1145 128.893 86.1145C124.236 86.1145 120.448 82.327 120.448 77.6697C120.448 73.0124 124.236 69.2249 128.893 69.2249ZM86.6688 98.7817C86.6688 99.9492 85.723 100.893 84.5576 100.893H78.224V107.227C78.224 108.394 77.2782 109.338 76.1128 109.338H63.4456C62.2802 109.338 61.3344 108.394 61.3344 107.227V100.893H55.0008C53.8354 100.893 52.8896 99.9492 52.8896 98.7817V86.1145C52.8896 84.947 53.8354 84.0033 55.0008 84.0033H61.3344V77.6697C61.3344 76.5022 62.2802 75.5585 63.4456 75.5585H76.1128C77.2782 75.5585 78.224 76.5022 78.224 77.6697V84.0033H84.5576C85.723 84.0033 86.6688 84.947 86.6688 86.1145V98.7817ZM95.1137 73.4473C93.9483 73.4473 93.0025 72.5036 93.0025 71.3361C93.0025 70.1686 93.9483 69.2249 95.1137 69.2249H104.891C106.056 69.2249 107.002 70.1686 107.002 71.3361C107.002 72.5036 106.056 73.4473 104.891 73.4473H95.1137ZM114.114 100.893C109.457 100.893 105.67 97.1054 105.67 92.4481C105.67 87.7908 109.457 84.0033 114.114 84.0033C118.772 84.0033 122.559 87.7908 122.559 92.4481C122.559 97.1054 118.772 100.893 114.114 100.893ZM128.893 115.671C124.236 115.671 120.448 111.884 120.448 107.227C120.448 102.569 124.236 98.7817 128.893 98.7817C133.55 98.7817 137.338 102.569 137.338 107.227C137.338 111.884 133.55 115.671 128.893 115.671ZM143.671 100.893C139.014 100.893 135.226 97.1054 135.226 92.4481C135.226 87.7908 139.014 84.0033 143.671 84.0033C148.329 84.0033 152.116 87.7908 152.116 92.4481C152.116 97.1054 148.329 100.893 143.671 100.893Z" fill="#0C9A97" fill-opacity="0.07"/>
<path d="M143.671 96.6714C146.003 96.6714 147.894 94.7809 147.894 92.449C147.894 90.117 146.003 88.2266 143.671 88.2266C141.339 88.2266 139.449 90.117 139.449 92.449C139.449 94.7809 141.339 96.6714 143.671 96.6714Z" fill="#0C9A97" fill-opacity="0.07"/>
<path d="M14.4886 146V36.9091H77.6101V45.8579H24.4496V86.9268H72.6562V95.8757H24.4496V146H14.4886ZM134.339 146H102.379V36.9091H136.257C146.662 36.9091 155.558 39.0753 162.944 43.4077C170.366 47.7401 176.048 53.9545 179.989 62.0511C183.931 70.1477 185.902 79.8601 185.902 91.1882C185.902 102.623 183.878 112.442 179.83 120.645C175.817 128.812 169.957 135.08 162.251 139.448C154.581 143.816 145.277 146 134.339 146ZM112.34 137.051H133.754C143.129 137.051 150.977 135.205 157.298 131.511C163.619 127.818 168.359 122.545 171.52 115.691C174.68 108.837 176.261 100.67 176.261 91.1882C176.225 81.7777 174.663 73.6811 171.573 66.8984C168.519 60.1158 163.974 54.9133 157.937 51.2912C151.935 47.669 144.513 45.8579 135.671 45.8579H112.34V137.051Z" fill="#0C9A97"/>
<rect x="15" y="95" width="171" height="19" fill="white"/>
<path d="M34.3523 110V99.8182H40.2436V100.653H35.282V104.487H39.7812V105.322H35.282V110H34.3523ZM49.3416 99.8182H50.2713V106.56C50.2713 107.252 50.1089 107.872 49.7841 108.419C49.4593 108.963 49.0069 109.392 48.4268 109.707C47.8501 110.018 47.179 110.174 46.4134 110.174C45.651 110.174 44.9799 110.017 44.3999 109.702C43.8198 109.387 43.3674 108.958 43.0426 108.414C42.7178 107.871 42.5554 107.252 42.5554 106.56V99.8182H43.4851V106.495C43.4851 107.035 43.6061 107.518 43.848 107.942C44.09 108.363 44.4297 108.694 44.8672 108.936C45.308 109.178 45.8234 109.299 46.4134 109.299C47.0033 109.299 47.5187 109.178 47.9595 108.936C48.4003 108.694 48.7401 108.363 48.9787 107.942C49.2206 107.518 49.3416 107.035 49.3416 106.495V99.8182ZM60.9031 99.8182V110H59.9982L53.9826 101.474H53.9031V110H52.9734V99.8182H53.8732L59.9087 108.354H59.9883V99.8182H60.9031ZM63.6101 110V99.8182H64.5398V104.487H70.3168V99.8182H71.2464V110H70.3168V105.322H64.5398V110H63.6101ZM82.2933 104.909C82.2933 105.97 82.1044 106.893 81.7266 107.678C81.3487 108.46 80.8284 109.067 80.1655 109.498C79.5059 109.925 78.7469 110.139 77.8885 110.139C77.0301 110.139 76.2694 109.925 75.6065 109.498C74.947 109.067 74.4283 108.46 74.0504 107.678C73.6759 106.893 73.4886 105.97 73.4886 104.909C73.4886 103.848 73.6759 102.927 74.0504 102.145C74.4283 101.359 74.9486 100.753 75.6115 100.325C76.2744 99.8944 77.0334 99.679 77.8885 99.679C78.7469 99.679 79.5059 99.8944 80.1655 100.325C80.8284 100.753 81.3487 101.359 81.7266 102.145C82.1044 102.927 82.2933 103.848 82.2933 104.909ZM81.3885 104.909C81.3885 103.998 81.236 103.217 80.9311 102.567C80.6262 101.915 80.2102 101.416 79.6832 101.071C79.1563 100.726 78.558 100.554 77.8885 100.554C77.2223 100.554 76.6257 100.726 76.0987 101.071C75.5717 101.416 75.1541 101.913 74.8459 102.562C74.541 103.212 74.3885 103.994 74.3885 104.909C74.3885 105.821 74.541 106.601 74.8459 107.251C75.1508 107.9 75.5668 108.399 76.0938 108.747C76.6207 109.092 77.219 109.264 77.8885 109.264C78.558 109.264 79.1563 109.092 79.6832 108.747C80.2135 108.402 80.6312 107.905 80.9361 107.256C81.241 106.603 81.3918 105.821 81.3885 104.909ZM91.3279 99.8182H92.2576V106.56C92.2576 107.252 92.0952 107.872 91.7704 108.419C91.4456 108.963 90.9932 109.392 90.4132 109.707C89.8365 110.018 89.1653 110.174 88.3997 110.174C87.6374 110.174 86.9662 110.017 86.3862 109.702C85.8062 109.387 85.3538 108.958 85.0289 108.414C84.7041 107.871 84.5417 107.252 84.5417 106.56V99.8182H85.4714V106.495C85.4714 107.035 85.5924 107.518 85.8343 107.942C86.0763 108.363 86.416 108.694 86.8535 108.936C87.2943 109.178 87.8097 109.299 88.3997 109.299C88.9896 109.299 89.505 109.178 89.9458 108.936C90.3867 108.694 90.7264 108.363 90.965 107.942C91.207 107.518 91.3279 107.035 91.3279 106.495V99.8182ZM100.488 102.364C100.432 101.797 100.182 101.346 99.7374 101.011C99.2933 100.677 98.7348 100.509 98.062 100.509C97.588 100.509 97.1704 100.59 96.8091 100.753C96.4512 100.915 96.1694 101.141 95.964 101.429C95.7618 101.714 95.6607 102.039 95.6607 102.403C95.6607 102.672 95.7187 102.907 95.8347 103.109C95.9507 103.312 96.1065 103.486 96.302 103.631C96.5009 103.774 96.7196 103.897 96.9583 103.999C97.2002 104.102 97.4438 104.188 97.6891 104.258L98.763 104.566C99.0878 104.656 99.4126 104.77 99.7374 104.909C100.062 105.048 100.359 105.224 100.627 105.436C100.899 105.645 101.116 105.902 101.279 106.207C101.444 106.508 101.527 106.871 101.527 107.295C101.527 107.839 101.386 108.328 101.105 108.762C100.823 109.196 100.419 109.541 99.8915 109.796C99.3645 110.048 98.7331 110.174 97.9973 110.174C97.3046 110.174 96.7031 110.06 96.1926 109.831C95.6822 109.599 95.2812 109.279 94.9895 108.871C94.6979 108.464 94.5338 107.991 94.4973 107.455H95.4519C95.485 107.856 95.6176 108.195 95.8496 108.474C96.0816 108.752 96.3832 108.964 96.7544 109.11C97.1257 109.253 97.54 109.324 97.9973 109.324C98.5044 109.324 98.9552 109.239 99.3496 109.07C99.7473 108.898 100.059 108.659 100.284 108.354C100.513 108.046 100.627 107.688 100.627 107.281C100.627 106.936 100.538 106.647 100.359 106.415C100.18 106.18 99.9296 105.983 99.6081 105.824C99.29 105.665 98.9204 105.524 98.4995 105.401L97.2814 105.043C96.4827 104.805 95.8629 104.475 95.4221 104.054C94.9812 103.633 94.7608 103.096 94.7608 102.443C94.7608 101.896 94.9067 101.416 95.1983 101.001C95.4933 100.584 95.891 100.259 96.3915 100.027C96.8953 99.7917 97.4604 99.674 98.0868 99.674C98.7199 99.674 99.28 99.79 99.7672 100.022C100.254 100.254 100.641 100.574 100.926 100.982C101.214 101.386 101.368 101.847 101.388 102.364H100.488ZM103.764 110V99.8182H109.671V100.653H104.694V104.487H109.357V105.322H104.694V109.165H109.77V110H103.764ZM118.997 110H116.014V99.8182H119.176C120.147 99.8182 120.978 100.02 121.667 100.425C122.36 100.829 122.89 101.409 123.258 102.165C123.626 102.92 123.81 103.827 123.81 104.884C123.81 105.951 123.621 106.868 123.243 107.634C122.869 108.396 122.322 108.981 121.602 109.388C120.887 109.796 120.018 110 118.997 110ZM116.944 109.165H118.943C119.818 109.165 120.55 108.992 121.14 108.648C121.73 108.303 122.173 107.811 122.468 107.171C122.762 106.531 122.91 105.769 122.91 104.884C122.907 104.006 122.761 103.25 122.472 102.617C122.187 101.984 121.763 101.499 121.2 101.161C120.64 100.822 119.947 100.653 119.122 100.653H116.944V109.165ZM126.993 99.8182V110H126.063V99.8182H126.993ZM136.745 103C136.652 102.662 136.516 102.345 136.337 102.05C136.158 101.752 135.936 101.492 135.671 101.27C135.409 101.045 135.106 100.869 134.761 100.743C134.42 100.617 134.038 100.554 133.618 100.554C132.955 100.554 132.361 100.726 131.838 101.071C131.314 101.416 130.9 101.913 130.595 102.562C130.293 103.212 130.142 103.994 130.142 104.909C130.142 105.821 130.295 106.601 130.6 107.251C130.905 107.9 131.322 108.399 131.853 108.747C132.386 109.092 132.996 109.264 133.682 109.264C134.309 109.264 134.862 109.125 135.343 108.847C135.823 108.568 136.198 108.17 136.466 107.653C136.738 107.136 136.871 106.522 136.864 105.809L137.162 105.903H133.901V105.068H137.769V105.903C137.769 106.772 137.593 107.522 137.242 108.156C136.891 108.789 136.408 109.277 135.795 109.622C135.182 109.967 134.478 110.139 133.682 110.139C132.794 110.139 132.017 109.925 131.35 109.498C130.684 109.067 130.166 108.46 129.794 107.678C129.426 106.893 129.243 105.97 129.243 104.909C129.243 104.11 129.349 103.389 129.561 102.746C129.773 102.103 130.073 101.553 130.461 101.096C130.852 100.638 131.314 100.289 131.848 100.047C132.381 99.8016 132.971 99.679 133.618 99.679C134.174 99.679 134.683 99.7668 135.144 99.9425C135.608 100.118 136.016 100.36 136.367 100.668C136.721 100.973 137.011 101.326 137.237 101.727C137.466 102.125 137.62 102.549 137.699 103H136.745ZM141.007 99.8182V110H140.077V99.8182H141.007ZM143.097 100.653V99.8182H150.48V100.653H147.253V110H146.324V100.653H143.097ZM151.398 110H150.424L154.128 99.8182H155.122L158.826 110H157.852L154.66 101.026H154.59L151.398 110ZM152.099 106.097H157.151V106.933H152.099V106.097ZM160.571 110V99.8182H161.501V109.165H166.353V110H160.571Z" fill="#4A597F"/>
</svg>
